P2
10 10
255
109 72 109 145 182 109 72 109 145 182 
72 0 72 72 109 72 0 72 72 109 
109 72 72 0 72 109 72 72 0 72 
182 145 109 72 109 182 145 109 72 109 
182 145 182 145 182 182 145 182 145 182 
109 72 109 145 182 109 72 109 145 182 
72 0 72 72 109 72 0 72 72 109 
109 72 72 0 72 109 72 72 0 72 
182 145 109 72 109 182 145 109 72 72 
255 218 182 145 182 218 218 145 72 0 
